<?xml version="1.0" standalone="no"?>
<!DOCTYPE svg PUBLIC "-//W3C//DTD SVG 20010904//EN"
 "http://www.w3.org/TR/2001/REC-SVG-20010904/DTD/svg10.dtd">
<svg version="1.0" xmlns="http://www.w3.org/2000/svg"
 width="1280.000000pt" height="1186.000000pt" viewBox="0 0 1280.000000 1186.000000"
 preserveAspectRatio="xMidYMid meet">
<g transform="translate(0.000000,1186.000000) scale(0.100000,-0.100000)"
fill="#000000" stroke="none">
<path d="M6660 11850 c-19 -4 -66 -13 -105 -20 -177 -29 -299 -111 -320 -215
l-6 -30 18 25 c144 200 395 258 811 185 151 -26 494 -114 529 -136 62 -39 109
-148 139 -323 21 -126 29 -560 15 -816 -26 -463 -136 -1513 -166 -1569 -23
-45 -80 -86 -148 -107 -52 -16 -92 -19 -252 -18 -104 1 -210 5 -235 10 l-45
10 3 42 c3 34 -2 52 -23 84 l-27 40 21 22 c29 30 26 50 -9 80 -29 24 -114 56
-149 56 -87 0 -144 -100 -120 -211 6 -28 9 -53 6 -56 -7 -6 -271 60 -319 80
-43 18 -61 63 -83 207 -40 263 -54 598 -62 1405 -4 383 -10 657 -14 615 -16
-167 -41 -725 -47 -1050 -16 -805 24 -1185 132 -1251 72 -44 417 -140 646
-179 177 -31 438 -38 551 -16 164 33 271 110 304 220 19 65 84 690 127 1231
19 247 17 889 -5 1041 -46 331 -129 501 -261 539 -228 65 -800 132 -906 105z"/>
<path d="M6360 11550 c-19 -5 -45 -20 -57 -35 -29 -33 -30 -83 -4 -271 27
-192 44 -420 38 -501 -2 -37 -23 -210 -46 -383 -54 -413 -69 -621 -54 -741 41
-320 254 -425 930 -459 122 -7 231 -9 242 -5 93 29 213 490 263 1010 18 196
15 643 -6 788 -34 239 -86 389 -167 481 -70 79 -97 88 -299 97 -96 5 -267 13
-380 19 -236 12 -410 12 -460 0z m711 -99 c300 -21 318 -25 363 -84 89 -116
126 -330 126 -718 0 -322 -25 -622 -81 -969 -22 -142 -64 -326 -87 -384 l-15
-39 -136 7 c-658 32 -829 75 -906 226 -40 79 -49 162 -41 390 24 668 22 633
60 830 42 211 42 205 -4 540 -20 153 -25 209 -16 219 14 18 321 10 737 -18z"/>
<path d="M5523 10247 c-45 -17 -49 -25 -17 -33 172 -39 249 -92 247 -168 -1
-49 -51 -136 -139 -244 -42 -52 -74 -96 -71 -98 10 -11 152 74 206 123 159
143 155 351 -8 419 -40 17 -173 17 -218 1z"/>
<path d="M2115 10144 c-115 -18 -305 -72 -431 -124 -287 -117 -459 -291 -494
-502 -31 -183 10 -356 195 -818 178 -446 191 -489 243 -765 9 -46 10 -41 11
55 2 192 -34 335 -180 716 -142 373 -168 460 -184 614 -20 198 73 377 257 497
153 99 423 189 641 214 515 58 689 -367 420 -1021 -61 -148 -108 -228 -305
-515 -171 -250 -210 -362 -190 -543 12 -99 9 -117 -13 -108 -10 3 -13 -6 -12
-38 2 -49 -11 -70 -63 -96 -81 -42 -206 -47 -313 -13 -52 16 -107 57 -107 79
0 19 -23 18 -49 -3 -29 -26 -38 -168 -17 -278 40 -208 97 -342 164 -390 39
-27 51 -30 110 -29 114 2 301 88 322 149 16 45 24 155 13 195 -9 34 -1 216 12
292 5 24 1 54 -10 89 -14 42 -17 74 -12 168 8 192 43 270 219 500 135 175 251
347 299 444 197 392 229 794 81 1023 -73 113 -184 184 -329 209 -96 17 -161
17 -278 -1z m-510 -2465 c71 -31 218 -59 317 -59 90 0 110 -8 81 -31 -25 -21
-386 -26 -417 -6 -23 15 -52 90 -41 107 8 13 5 13 60 -11z m432 -186 c-43 -81
-103 -105 -279 -111 l-136 -5 -27 53 c-14 28 -24 54 -22 57 3 2 35 -5 72 -16
119 -37 262 -21 355 39 49 32 59 27 37 -17z m23 -162 c0 -54 -16 -69 -92 -86
-225 -51 -251 -55 -275 -39 -44 28 -28 41 60 46 85 6 203 41 261 78 39 25 46
25 46 1z"/>
<path d="M8722 10129 c-151 -39 -275 -119 -313 -204 -44 -97 -13 -197 93 -302
58 -56 238 -187 246 -178 2 2 -2 21 -8 41 -9 25 -49 76 -120 149 -118 122
-131 148 -106 209 22 52 116 147 221 223 50 36 94 70 100 74 15 14 -33 9 -113
-12z"/>
<path d="M5295 9989 c-542 -27 -701 -42 -865 -80 -231 -53 -391 -130 -640
-307 -126 -90 -447 -338 -456 -354 -4 -6 -3 -9 2 -6 112 67 561 312 684 372
305 150 475 196 1189 320 139 25 258 49 264 55 8 8 7 11 -3 10 -8 -1 -87 -6
-175 -10z"/>
<path d="M8940 9740 c41 -11 226 -45 410 -75 184 -31 385 -67 445 -82 203 -48
394 -125 541 -219 30 -20 58 -34 60 -31 2 2 -9 23 -26 46 -112 154 -306 262
-578 321 -170 37 -327 51 -632 55 l-295 4 75 -19z"/>
<path d="M2264 9352 c-43 -31 -103 -106 -155 -192 -18 -30 -38 -58 -43 -62 -6
-4 -59 -8 -117 -8 l-105 0 -23 55 c-24 58 -75 111 -117 121 -83 21 -247 -31
-260 -82 -4 -14 -2 -35 4 -48 13 -29 107 -78 202 -106 121 -35 123 -37 137
-105 33 -156 26 -429 -18 -774 -11 -84 -17 -156 -14 -159 3 -3 5 -1 5 5 0 6
11 64 25 129 59 288 79 486 85 847 0 10 102 9 119 -2 12 -8 10 -22 -11 -88
-58 -176 -111 -443 -142 -713 -16 -138 -30 -383 -21 -365 2 6 27 120 55 254
93 446 216 894 250 912 8 4 46 14 83 23 151 34 222 99 222 204 0 67 -28 146
-58 167 -32 22 -59 18 -103 -13z m39 -149 c-5 -15 -24 -38 -43 -50 -33 -23
-80 -31 -80 -15 0 15 57 89 81 106 20 14 25 14 37 2 11 -10 12 -21 5 -43z
m-635 -59 c35 -24 27 -37 -18 -31 -43 6 -73 24 -64 38 8 14 58 10 82 -7z"/>
<path d="M11565 9314 c-148 -27 -795 -261 -1015 -367 -65 -31 -286 -187 -265
-187 4 0 129 54 278 121 430 192 600 255 884 330 215 57 362 43 449 -42 47
-46 91 -150 109 -259 32 -196 31 -881 -1 -965 -18 -46 -24 8 -24 223 0 250
-10 370 -41 491 -52 202 -141 296 -308 322 -153 23 -384 -28 -904 -201 -378
-126 -409 -138 -433 -175 -15 -23 -15 -31 -4 -68 12 -42 40 -91 40 -70 0 6 -7
29 -15 53 -15 43 -11 64 18 88 14 12 628 181 847 234 236 56 379 65 471 29 78
-29 140 -131 165 -269 21 -116 35 -358 32 -530 l-3 -154 -60 -24 c-66 -28
-870 -264 -999 -294 -172 -40 -254 -36 -316 16 -69 59 -90 157 -90 427 0 104
-2 188 -5 185 -13 -13 -35 -256 -35 -388 0 -207 31 -310 98 -327 53 -13 637
74 921 137 313 70 464 126 589 216 12 9 25 14 28 11 10 -9 -36 -88 -77 -132
-111 -120 -238 -166 -902 -324 -232 -56 -474 -114 -537 -130 -86 -22 -118 -26
-126 -17 -7 6 -28 124 -49 261 -57 395 -135 887 -145 925 -13 47 -4 -235 16
-490 31 -410 58 -613 97 -730 22 -64 23 -65 57 -64 50 2 846 158 1019 200 79
18 147 34 152 34 15 0 10 -20 -16 -58 -28 -42 -21 -52 37 -52 31 0 41 6 67 42
17 23 31 45 31 49 0 4 -16 10 -35 13 -19 4 -35 11 -35 15 0 5 21 16 48 26 26
10 82 33 125 51 43 19 80 34 83 34 3 0 3 -9 -1 -20 -5 -16 1 -23 30 -37 l36
-17 37 38 37 37 -30 25 -30 25 53 45 c231 202 295 542 217 1154 -43 331 -100
452 -243 518 -70 32 -207 39 -327 16z"/>
<path d="M7980 8739 c0 -3 30 -70 66 -150 145 -316 178 -462 224 -1014 12
-131 23 -241 25 -243 11 -12 45 294 52 478 11 301 -39 497 -181 708 -58 85
-185 237 -186 221z"/>
<path d="M2863 8303 c-51 -7 -39 -18 34 -32 85 -16 299 -86 428 -141 340 -144
703 -370 968 -601 26 -22 47 -37 47 -33 0 20 -62 114 -118 179 -214 252 -710
535 -1067 610 -82 17 -235 27 -292 18z"/>
<path d="M4450 7764 c0 -5 21 -61 46 -123 31 -76 44 -121 40 -137 -8 -29 -36
-47 -230 -150 l-149 -79 62 -3 c127 -6 305 44 372 105 69 63 72 134 9 233 -31
49 -150 171 -150 154z"/>
<path d="M12161 7523 c167 -172 238 -294 239 -406 0 -119 -48 -161 -294 -258
-995 -393 -1085 -426 -1225 -454 -92 -19 -142 -15 -202 16 -55 28 -99 93 -169
254 -82 187 -182 396 -187 391 -3 -2 1 -23 7 -46 6 -23 8 -45 5 -48 -3 -4 -22
11 -40 33 l-35 40 34 -95 c178 -499 286 -745 362 -822 32 -33 42 -38 83 -38
341 1 1733 696 1821 911 12 28 12 33 -5 45 -10 8 -25 14 -33 14 -12 0 -11 -4
3 -20 16 -17 16 -24 5 -44 -14 -28 -95 -89 -111 -84 -5 2 2 19 16 38 39 52 58
100 56 145 -4 105 -60 210 -178 331 -72 75 -217 194 -235 194 -6 0 31 -44 83
-97z m39 -742 c0 -12 -304 -166 -503 -255 -415 -186 -753 -297 -910 -300 -74
-1 -80 1 -103 27 -13 15 -24 32 -24 36 0 5 47 6 103 4 78 -4 123 -1 183 12
173 38 461 148 1029 394 116 50 213 90 218 91 4 0 7 -4 7 -9z"/>
<path d="M5833 7455 c-108 -29 -204 -90 -324 -202 -69 -66 -212 -235 -246
-294 -24 -41 -37 -42 -80 -7 -53 43 -166 94 -240 108 -98 20 -261 8 -356 -25
-149 -52 -270 -150 -318 -259 -22 -52 -28 -142 -11 -186 7 -20 10 -6 14 65 3
76 9 99 33 144 85 156 319 252 539 222 135 -19 239 -65 349 -153 l28 -23 62
65 c34 36 97 106 140 155 117 134 228 228 326 278 79 39 90 42 165 42 96 -1
148 -22 227 -93 58 -52 134 -155 144 -195 15 -57 105 -91 113 -42 7 34 24 47
117 91 147 70 228 89 381 89 l130 0 76 -38 c124 -61 184 -145 228 -316 26
-102 40 -131 80 -164 44 -38 98 -42 231 -18 64 11 147 23 185 27 214 20 400
-107 516 -352 29 -61 33 -79 33 -154 0 -77 -4 -93 -38 -170 -32 -70 -38 -93
-34 -130 4 -39 13 -52 64 -100 35 -33 124 -94 218 -149 452 -266 625 -430 625
-592 0 -50 -5 -64 -40 -117 -22 -33 -60 -76 -84 -96 -25 -20 -54 -52 -67 -72
l-22 -37 80 -76 c44 -42 127 -121 185 -176 62 -59 118 -123 136 -155 115 -200
-81 -320 -693 -426 -191 -33 -301 -39 -436 -25 -120 13 -339 65 -524 125 -60
19 -111 34 -112 32 -7 -6 261 -118 326 -137 317 -91 856 -79 1179 27 244 80
362 186 362 326 0 132 -86 253 -297 421 -40 32 -73 64 -73 71 0 7 14 25 31 42
49 45 115 154 134 219 47 160 -36 317 -254 479 -48 36 -184 122 -302 191 -118
70 -228 138 -246 151 -64 48 -62 42 -40 151 14 69 20 137 20 228 0 112 -3 141
-25 207 -14 43 -40 100 -58 128 -127 197 -401 285 -779 250 -111 -10 -136 -10
-147 2 -7 7 -27 72 -43 144 -16 72 -41 154 -55 181 -48 95 -126 150 -245 174
-133 26 -480 -13 -651 -72 -133 -47 -131 -47 -167 3 -133 183 -300 259 -470
213z"/>
<path d="M7950 7443 c1 -14 106 -208 145 -268 57 -85 159 -190 209 -214 110
-54 211 -1 281 146 40 84 73 273 48 273 -5 0 -34 -54 -65 -119 -89 -183 -152
-230 -246 -182 -39 20 -158 137 -288 284 -77 87 -84 94 -84 80z"/>
<path d="M11857 7370 c-29 -42 -28 -44 20 -55 29 -6 34 -3 53 27 25 42 25 42
-5 56 -37 17 -40 16 -68 -28z"/>
<path d="M11156 7231 l-39 -40 34 -20 c19 -12 37 -21 40 -21 4 0 24 19 44 42
l38 41 -34 18 c-19 10 -36 18 -39 19 -3 0 -23 -18 -44 -39z"/>
<path d="M12013 7237 c-12 -7 -35 -31 -52 -54 l-31 -42 22 -16 c13 -8 28 -15
36 -15 28 0 70 30 95 69 l27 40 -22 16 c-27 18 -45 19 -75 2z"/>
<path d="M11484 7210 c-26 -10 -100 -98 -90 -107 3 -3 30 -8 59 -11 49 -4 54
-2 100 38 26 23 47 48 47 55 0 10 -75 38 -92 34 -2 0 -13 -4 -24 -9z"/>
<path d="M10902 7145 c-39 -37 -44 -47 -32 -55 49 -33 102 -17 129 38 15 32
15 35 -4 48 -29 22 -43 17 -93 -31z"/>
<path d="M12230 7104 c-14 -36 -13 -42 12 -55 18 -10 24 -8 35 7 18 24 16 61
-3 68 -27 10 -34 7 -44 -20z"/>
<path d="M10551 7073 l-54 -47 34 -12 c60 -22 81 -17 134 30 l50 44 -54 16
c-30 9 -55 16 -55 16 -1 0 -25 -22 -55 -47z"/>
<path d="M11065 6997 l-49 -44 48 -16 c46 -16 50 -16 75 2 14 11 37 30 50 44
l23 26 -37 15 c-52 22 -54 21 -110 -27z"/>
<path d="M11619 7003 c-38 -20 -69 -42 -69 -50 0 -20 60 -53 97 -53 27 0 35 6
62 55 18 31 29 60 26 64 -13 23 -50 17 -116 -16z"/>
<path d="M1069 6973 c-267 -279 -333 -621 -218 -1137 26 -117 79 -307 91 -326
10 -17 4 144 -18 440 -30 411 -14 557 87 813 22 54 55 130 75 168 19 39 34 75
32 80 -2 5 -24 -12 -49 -38z"/>
<path d="M11907 6948 c-28 -48 -23 -58 30 -58 26 0 37 7 58 37 36 53 33 63
-19 63 -41 0 -46 -3 -69 -42z"/>
<path d="M10692 6930 c-24 -10 -112 -96 -112 -111 0 -14 90 -11 154 6 57 15
116 48 116 65 0 5 -15 18 -34 29 -35 22 -85 26 -124 11z"/>
<path d="M11253 6877 c-13 -7 -36 -31 -53 -54 l-31 -42 25 -16 c38 -25 85 -6
126 51 31 43 31 46 14 59 -23 18 -52 18 -81 2z"/>
<path d="M11378 6717 c-32 -23 -57 -45 -58 -48 0 -4 27 -12 61 -18 66 -13 72
-11 164 63 l29 23 -52 12 c-76 16 -81 15 -144 -32z"/>
<path d="M10782 6690 c-24 -21 -41 -44 -37 -49 3 -6 24 -16 45 -22 39 -12 41
-11 84 27 24 21 45 42 45 47 1 4 -10 12 -24 17 -59 22 -69 21 -113 -20z"/>
<path d="M10904 6598 c-49 -56 -49 -56 -10 -75 l36 -17 35 34 c42 40 43 53 10
68 -37 17 -49 15 -71 -10z"/>
<path d="M12517 6368 c26 -173 35 -452 23 -687 -6 -122 -9 -225 -7 -227 2 -3
20 37 39 88 130 341 122 653 -24 866 -16 23 -32 42 -36 42 -5 0 -2 -37 5 -82z"/>
<path d="M10120 6365 c0 -435 -137 -854 -369 -1132 -60 -73 -47 -85 33 -32 84
56 199 207 280 365 147 293 182 585 95 806 -32 82 -39 81 -39 -7z"/>
<path d="M4075 6420 c-217 -44 -430 -237 -520 -471 -40 -104 -47 -258 -16
-340 31 -82 89 -142 174 -183 89 -42 145 -54 265 -57 77 -1 96 1 113 17 17 15
25 16 50 7 25 -10 31 -9 39 7 25 47 18 50 -109 50 -208 0 -340 38 -424 123
-147 147 -103 392 108 602 135 134 250 194 430 225 91 15 96 17 60 23 -50 9
-118 7 -170 -3z"/>
<path d="M4615 6216 c-107 -47 -143 -167 -88 -291 33 -75 33 -96 0 -272 -87
-470 -40 -720 131 -699 60 8 141 49 232 117 71 54 98 84 86 96 -3 3 -25 -9
-51 -27 -125 -86 -248 -117 -296 -74 -75 68 -77 190 -7 542 l32 164 -22 131
c-47 278 -17 337 140 277 67 -25 76 -25 52 1 -41 47 -144 64 -209 35z"/>
<path d="M12203 5613 c9 -181 47 -291 124 -365 46 -44 79 -58 141 -58 65 1
124 30 185 93 47 47 125 172 115 182 -2 3 -41 -22 -87 -55 -144 -103 -214
-124 -270 -83 -34 26 -88 127 -147 279 -27 68 -53 124 -58 124 -5 0 -6 -50 -3
-117z"/>
<path d="M566 5523 c189 -236 322 -378 408 -434 109 -71 198 -48 278 72 58 88
158 303 158 340 0 14 -37 -31 -133 -165 -96 -134 -129 -166 -170 -166 -42 0
-60 12 -267 175 -186 146 -293 225 -305 225 -4 0 10 -21 31 -47z"/>
<path d="M6775 5461 c-22 -10 -49 -28 -60 -40 l-19 -22 52 20 c63 25 85 26
106 5 24 -24 19 -77 -20 -219 -40 -145 -53 -265 -32 -304 7 -14 50 -51 96 -84
158 -112 164 -191 18 -246 -134 -50 -446 -77 -776 -68 -120 4 -199 3 -190 -3
21 -12 167 -48 265 -66 115 -21 381 -29 490 -15 169 23 304 68 383 127 130 99
82 241 -119 355 -103 59 -96 39 -66 180 35 164 41 236 27 303 -19 90 -70 116
-155 77z"/>
<path d="M9560 5361 c0 -335 99 -561 245 -561 57 0 146 46 219 115 33 30 57
57 54 61 -4 3 -42 -6 -85 -21 -43 -15 -108 -30 -145 -33 l-68 -5 -38 39 c-42
43 -56 82 -132 364 -23 85 -44 157 -46 159 -2 2 -4 -51 -4 -118z"/>
<path d="M3993 5264 c-253 -278 -340 -505 -260 -679 66 -141 258 -247 493
-271 l64 -7 0 50 0 50 -107 6 c-60 3 -131 13 -160 21 -69 22 -133 71 -161 126
-20 39 -23 56 -19 125 2 47 14 107 27 145 32 91 117 258 200 393 38 63 70 117
70 121 0 3 -15 6 -34 6 -31 0 -44 -10 -113 -86z"/>
<path d="M11940 4875 c-115 -15 -491 -83 -499 -91 -11 -11 389 -2 546 12 247
22 399 8 464 -44 l22 -19 -38 -34 c-22 -19 -111 -106 -199 -195 -193 -192
-235 -218 -356 -218 -59 0 -87 6 -132 27 -113 51 -226 147 -359 303 -39 47
-74 83 -76 80 -10 -10 81 -199 127 -263 65 -93 165 -184 246 -224 56 -28 80
-34 153 -37 197 -9 348 94 528 363 44 66 93 133 107 149 l27 28 25 -22 c41
-40 62 -117 83 -312 44 -396 39 -512 -23 -574 -53 -53 -85 -55 -611 -45 -481
10 -548 16 -623 55 -32 17 -84 71 -102 106 -44 85 -57 264 -37 530 7 102 12
187 11 188 -10 14 -70 -286 -84 -418 -31 -282 47 -438 250 -501 139 -43 510
-73 925 -73 256 -1 284 3 355 54 68 49 96 184 80 384 -13 156 -57 463 -75 521
-39 132 -137 219 -292 261 -83 22 -303 26 -443 9z"/>
<path d="M590 4854 c-30 -8 -81 -32 -112 -53 -31 -21 -79 -46 -107 -56 -170
-56 -172 -188 -7 -343 37 -34 66 -66 66 -71 0 -6 -21 -22 -47 -35 -173 -88
-301 -287 -348 -542 -32 -174 -35 -198 -35 -245 0 -85 55 -439 69 -439 3 0 4
54 2 120 -4 140 12 364 35 500 44 256 137 434 265 505 49 27 62 30 149 30 75
0 104 -4 135 -20 122 -60 206 -219 251 -478 30 -177 39 -713 13 -784 -8 -20
-15 -23 -68 -23 -33 0 -124 10 -203 22 -253 39 -472 28 -543 -27 -19 -14 -17
-14 25 -7 25 4 110 7 190 6 116 0 181 -7 324 -32 187 -34 288 -40 331 -20 14
6 27 9 30 6 3 -2 13 -46 24 -97 10 -50 21 -94 23 -96 2 -3 4 89 5 203 1 322
41 557 123 727 51 106 105 166 185 206 82 40 182 44 263 9 156 -67 257 -302
268 -620 2 -74 9 -171 15 -215 13 -93 3 -423 -13 -443 -15 -17 -78 -15 -246
10 -102 15 -194 22 -302 22 -138 0 -161 -2 -212 -23 -66 -26 -86 -44 -36 -33
18 4 107 7 198 6 142 0 191 -5 345 -33 191 -35 292 -38 320 -10 8 8 19 39 25
69 6 30 15 59 21 65 6 6 75 10 177 10 143 -1 192 -5 344 -33 240 -44 321 -42
347 6 14 27 40 229 50 401 25 388 -44 716 -186 890 l-36 43 46 40 c75 63 94
167 62 332 -19 100 -44 155 -94 205 -49 49 -130 77 -199 67 -52 -7 -136 -43
-184 -79 -18 -14 -57 -32 -86 -42 -31 -10 -68 -31 -88 -51 -29 -30 -34 -42
-34 -81 0 -68 34 -128 118 -211 41 -40 73 -74 71 -76 -2 -2 -28 -16 -58 -31
-106 -53 -226 -194 -280 -329 -13 -31 -27 -56 -32 -56 -5 0 -22 26 -38 58 -16
32 -46 80 -66 107 l-37 48 40 34 c56 47 77 105 76 213 -1 110 -19 191 -56 262
-81 153 -250 181 -411 69 -31 -22 -74 -45 -95 -51 -90 -24 -148 -93 -137 -160
11 -60 46 -113 121 -186 81 -78 81 -73 1 -114 -92 -48 -212 -188 -260 -302 -9
-21 -20 -38 -26 -38 -5 0 -12 26 -16 58 -29 251 -75 399 -169 536 l-48 69 41
36 c55 48 72 95 73 195 1 220 -71 361 -203 400 -63 19 -78 19 -149 0z m68 -73
c37 -16 81 -32 99 -36 36 -7 46 -28 62 -135 21 -138 -30 -238 -136 -265 -88
-23 -190 5 -263 72 -91 81 -102 170 -35 282 23 38 142 104 198 110 5 1 39 -12
75 -28z m1880 -286 c29 -13 71 -29 92 -35 46 -12 52 -23 70 -108 27 -130 -10
-241 -93 -281 -114 -55 -286 0 -353 115 -23 38 -26 53 -22 107 6 93 42 146
127 185 107 50 108 50 179 17z m-900 -100 c29 -13 71 -29 93 -35 46 -13 51
-22 69 -127 23 -129 -14 -223 -105 -264 -113 -52 -288 11 -347 124 -32 62 -29
129 7 196 33 60 49 72 132 107 73 30 86 30 151 -1z m907 -482 c123 -64 208
-238 252 -515 24 -148 27 -724 4 -751 -19 -23 -91 -22 -259 5 -165 26 -379 30
-465 9 -31 -8 -60 -12 -63 -9 -3 4 0 69 7 146 13 161 7 457 -12 577 -12 77
-11 84 14 172 58 202 152 332 274 378 56 22 196 15 248 -12z"/>
<path d="M4347 4522 c-16 -18 -37 -65 -37 -84 0 -7 26 -8 80 -4 74 7 80 6 80
-12 0 -10 -11 -28 -25 -40 -25 -22 -33 -56 -16 -66 16 -10 109 14 143 38 44
29 46 56 8 99 -63 73 -195 112 -233 69z"/>
<path d="M4325 4258 c12 -54 55 -159 96 -228 80 -138 200 -255 322 -314 159
-77 369 -77 545 0 l52 23 -21 44 -22 44 -57 -29 c-183 -95 -463 6 -687 246
-67 71 -143 196 -143 232 0 10 -14 14 -46 14 l-46 0 7 -32z"/>
<path d="M10427 3950 c-27 -5 -51 -11 -55 -14 -3 -3 17 -15 44 -27 117 -50
291 -140 316 -163 67 -64 61 -205 -15 -350 -18 -34 -33 -64 -35 -68 -7 -15 31
-8 57 11 90 64 158 268 131 396 -16 76 -63 144 -125 177 -80 43 -200 57 -318
38z"/>
<path d="M5344 3930 c-21 -8 -39 -38 -29 -48 2 -3 7 3 11 12 5 12 19 16 60 16
55 0 72 13 32 24 -30 8 -48 7 -74 -4z"/>
<path d="M6543 3828 c-13 -6 -23 -17 -23 -24 0 -11 8 -10 35 3 35 17 47 34 23
32 -7 0 -23 -5 -35 -11z"/>
<path d="M6610 3791 c0 -10 -3 -32 -6 -49 -6 -28 -2 -34 57 -77 113 -84 275
-153 434 -186 101 -22 268 -17 350 9 80 25 151 74 179 123 l20 33 -35 -23
c-122 -81 -242 -115 -388 -109 -177 7 -333 74 -518 223 -70 56 -93 70 -93 56z"/>
<path d="M5418 3765 c-26 -16 -47 -33 -47 -37 -2 -17 107 -134 162 -175 163
-120 369 -184 585 -184 242 1 390 91 447 273 l18 55 -29 36 c-29 37 -44 39
-44 7 0 -50 -44 -136 -95 -186 -80 -79 -139 -98 -295 -98 -149 0 -235 20 -375
89 -112 55 -193 119 -242 193 l-38 57 -47 -30z"/>
<path d="M4185 3715 c-5 -2 -45 -7 -89 -10 -65 -6 -76 -9 -65 -20 22 -21 133
-54 227 -66 157 -21 177 -43 262 -283 60 -173 75 -177 66 -19 -19 324 -80 404
-305 402 -47 0 -90 -2 -96 -4z"/>
<path d="M10015 3531 c-203 -48 -410 -100 -460 -115 -195 -61 -283 -129 -513
-401 -75 -88 -192 -224 -260 -302 -68 -79 -121 -143 -118 -143 16 0 313 250
543 456 244 219 371 285 942 490 130 47 240 89 246 95 13 13 31 17 -380 -80z"/>
<path d="M4316 3420 c-40 -63 -127 -149 -202 -201 -172 -118 -464 -210 -759
-239 -177 -18 -183 -22 -61 -45 265 -51 618 26 852 186 74 50 167 149 197 209
26 51 38 150 20 150 -5 0 -25 -27 -47 -60z"/>
<path d="M11348 2837 c-202 -271 -470 -518 -819 -754 -724 -489 -1585 -756
-2183 -677 -40 5 -40 5 -16 -9 67 -39 160 -52 365 -52 244 1 397 23 689 102
891 240 1703 801 1997 1380 28 57 50 105 48 108 -3 2 -39 -42 -81 -98z"/>
<path d="M6545 2662 c-82 -25 -119 -46 -166 -94 -45 -47 -51 -69 -11 -42 60
41 136 74 209 90 211 47 505 -33 721 -196 177 -133 224 -232 224 -470 -1 -164
-45 -282 -123 -323 -21 -11 -43 -34 -53 -54 -21 -44 -95 -79 -209 -100 -154
-27 -361 8 -535 92 -117 56 -169 92 -256 174 -200 190 -243 406 -129 634 23
46 23 48 4 37 -28 -14 -95 -105 -116 -155 -70 -170 16 -394 226 -589 284 -263
685 -386 957 -294 80 27 77 28 112 -42 49 -99 132 -226 324 -494 242 -339 266
-380 272 -479 7 -96 -14 -141 -67 -145 -98 -8 -324 248 -673 766 -76 111 -139
202 -142 202 -3 0 38 -84 92 -187 232 -446 425 -746 571 -884 56 -54 146 -109
176 -109 8 0 33 17 56 38 57 50 91 144 98 268 7 106 -5 168 -52 271 -111 243
-311 502 -554 717 -61 54 -111 103 -111 109 0 5 28 39 63 76 77 82 108 140
138 256 21 78 24 113 23 265 -1 193 -7 222 -66 308 -103 150 -311 276 -568
344 -111 29 -353 35 -435 10z"/>
<path d="M6800 2474 c-8 -3 -34 -12 -57 -20 -24 -9 -43 -19 -43 -22 0 -4 35
-6 78 -4 182 8 347 -70 414 -195 51 -94 58 -203 22 -332 -53 -187 -218 -256
-428 -177 -141 53 -285 173 -345 286 -80 150 -36 278 121 354 l71 34 -38 8
c-49 9 -152 -10 -185 -34 -52 -39 -70 -79 -70 -158 0 -236 250 -565 497 -654
51 -18 77 -22 140 -18 47 3 92 12 112 22 88 46 176 176 221 325 65 212 -42
447 -249 549 -67 33 -84 37 -160 39 -47 1 -93 0 -101 -3z"/>
<path d="M2823 2123 c10 -16 422 -311 602 -430 445 -296 766 -439 1120 -499
127 -21 396 -29 540 -15 171 16 384 56 575 109 91 25 193 52 227 61 60 15 83
31 46 31 -10 0 -83 -11 -163 -25 -362 -63 -435 -69 -760 -69 -247 0 -324 3
-405 17 -392 69 -667 186 -1320 562 -198 114 -384 221 -414 238 -30 17 -51 26
-48 20z"/>
<path d="M8148 1618 c-249 -250 -326 -493 -188 -586 30 -21 44 -23 100 -19 43
3 82 13 116 30 61 31 162 109 147 114 -6 2 -56 -8 -111 -22 -167 -42 -220 -31
-209 44 3 20 60 143 127 274 67 131 120 243 117 250 -2 6 -46 -32 -99 -85z"/>
<path d="M5737 1671 c-20 -4 -40 -10 -42 -13 -3 -3 34 -24 82 -47 115 -55 158
-86 194 -137 38 -55 58 -136 65 -259 8 -150 14 -206 25 -200 5 3 21 45 36 93
51 163 33 349 -43 449 -69 91 -201 138 -317 114z"/>
</g>
</svg>
